<?xml version="1.0" encoding="utf-8"?>
<!-- Generator: Adobe Illustrator 23.0.6, SVG Export Plug-In . SVG Version: 6.00 Build 0)  -->
<svg version="1.1" id="Capa_1" xmlns="http://www.w3.org/2000/svg" xmlns:xlink="http://www.w3.org/1999/xlink" x="0px" y="0px"
	 viewBox="0 0 31.3 31.3" style="enable-background:new 0 0 31.3 31.3;" xml:space="preserve">
<style type="text/css">
	.st0{fill:#FFFFFF;}
</style>
<g>
	<g>
		<path class="st0" d="M14.5,16.5c-1-1.1-3.7-3.4-6.1-2.5L1,21.2c0,0,0.1,0,0.1,0c1.7-0.2,4.1,0,6.5,2.4c1.9,1.9,2.7,3.7,2.3,5
			c-0.2,0.7-0.8,1.2-1.6,1.3c-0.1,0-0.3,0-0.5,0c-1.4,0-3.4-0.8-5.2-3.3l1.1-0.8c1.5,2,3.3,2.9,4.3,2.7c0.4-0.1,0.5-0.3,0.5-0.4
			c0.2-0.5-0.2-1.8-2-3.5C3.8,21.8,1,22.5,0,22.9c-0.3,1.6,0.6,3.9,2.5,5.7c2.4,2.4,5.4,3.3,6.9,2c0,0,0,0,0,0l8.2-8.1
			c0.1-0.3,0.3-1.1-0.4-2.3C16.6,19,15.6,17.6,14.5,16.5z"/>
		<path class="st0" d="M28.8,2.7c-2.5-2.5-5.6-3.3-7.1-1.9c0,0-5.9,5.8-5.9,5.8c1.8,0.7,3.7,2,5.3,3.6c1.8,1.8,2.9,3.8,3.4,5.6
			c0,0,6.1-6,6.1-6.1C32.1,8.4,31.3,5.2,28.8,2.7z"/>
		<path class="st0" d="M24.4,19.1c-0.8-0.2-1.3-0.2-1.4-0.2c0.2-0.6,0.2-1.2,0.2-1.8c-0.1-2.1-1.4-4.2-3.1-5.9
			c-1.5-1.5-3.3-2.7-4.9-3.3c-0.2-0.1-0.4-0.1-0.5-0.2L10,12.4c2,0.2,3.9,1.5,5.5,3.1c1.3,1.3,2.4,2.8,3,4.2c0.3,0.6,0.4,1,0.5,1.5
			c0.3,1.7-0.5,2.5-0.5,2.5l2.6-2.6c0.1,0,0.2-0.1,0.3-0.1c0.1,0.6,0.1,1.1,0.1,1.6c-0.3,2.9-2.6,5.1-2.6,5.1l2.8,1.2
			c3.5-2.8,2.4-6.2,1.4-7.9c-0.2-0.4-0.4-0.7-0.5-0.9c0,0,0,0,0,0c0,0,0,0,0,0c0.3,0.1,0.6,0.3,0.9,0.5c2.8,1.9,3,6,3,6l2.7-1.3
			C29.5,21,26.4,19.6,24.4,19.1z"/>
	</g>
</g>
</svg>
