<?xml version="1.0" encoding="utf-8"?>
<!-- Generator: Adobe Illustrator 23.0.6, SVG Export Plug-In . SVG Version: 6.00 Build 0)  -->
<svg version="1.1" id="Layer_1" xmlns="http://www.w3.org/2000/svg" xmlns:xlink="http://www.w3.org/1999/xlink" x="0px" y="0px"
	 viewBox="0 0 512 512" style="enable-background:new 0 0 512 512;" xml:space="preserve">
<style type="text/css">
	.st0{fill:#FFFFFF;}
</style>
<path class="st0" d="M177.2,439c-11-3.7-22.9,2.3-26.6,13.3l-10.7,32c-4.6,13.7,5.7,27.7,20,27.7c8.8,0,17-5.6,19.9-14.4l10.7-32
	C194.2,454.6,188.2,442.6,177.2,439L177.2,439z"/>
<path class="st0" d="M305.4,439c-11-3.7-22.9,2.3-26.6,13.3l-10.7,32c-4.6,13.7,5.7,27.7,20,27.7c8.8,0,17-5.6,19.9-14.4l10.7-32
	C322.3,454.6,316.4,442.6,305.4,439L305.4,439z"/>
<path class="st0" d="M482.1,102.4l16.4-16.4c8.2-8.2,8.2-21.5,0-29.7c-8.2-8.2-21.5-8.2-29.7,0l-16.4,16.4
	c-19.6-14.8-43.1-24.8-68.5-28.4l0-23.2c0-11.6-9.4-21-21-21c-11.6,0-21,9.4-21,21l0,23.2c-10.2,1.5-20.1,3.9-29.6,7.4
	c-10.9,4-10.3,19.5,0.8,22.8c48.3,14.3,88.3,48.2,110.6,92.5c1.2,2.4,3.5,4,6.2,4.2c26,2.5,49.9,12.2,69.7,27.1
	c5.1,3.8,12.5,0.4,12.5-6.4C512,158.3,500.9,127.3,482.1,102.4L482.1,102.4z"/>
<path class="st0" d="M388,220.3c-11.8,6-23.3-8.5-14.6-18.5c2.4-2.7,4.9-5.4,7.8-7.9c4.3-3.9,5.2-10.3,2.2-15.3
	c-37.7-61.6-113.5-86.9-180-61.8c-7.5,2.8-10,12.2-5.1,18.6c19.3,25.4,1.7,36-20.9,25.3c-22.7-10.8-48.6-12.7-73-6.5
	C10.9,178-29.4,287.1,23.6,365.7c0.4,0.7,0.9,1.3,1.4,1.9c19.4,23,47.3,36.6,77.1,37.8l-4.9,14.8c-3.7,11,2.3,22.9,13.3,26.6
	c11,3.7,22.9-2.3,26.6-13.3l9.3-28h83.8l-4.9,14.7c-3.7,11,2.3,22.9,13.3,26.6c11,3.7,22.9-2.3,26.6-13.3l9.3-28h83.8l-4.9,14.7
	c-3.7,11,2.3,22.9,13.3,26.6c11,3.7,22.9-2.3,26.6-13.3l9.3-28H415c52.7,0,96.5-42.1,97-94.8C512.7,237.2,434.3,196.6,388,220.3
	L388,220.3z"/>
</svg>
